<?xml version="1.0" encoding="UTF-8"?>
<svg xmlns="http://www.w3.org/2000/svg" width="1314" height="1858" viewBox="0 0 1314 1858">
  <defs>
    <!-- Gold shimmer gradient -->
    <linearGradient id="goldShimmer" x1="0%" y1="0%" x2="100%" y2="100%">
      <stop offset="0%" stop-color="#b49c5a">
        <animate attributeName="stop-color" values="#b49c5a;#d4c07a;#f5e6a3;#d4c07a;#b49c5a" dur="3s" repeatCount="indefinite"/>
      </stop>
      <stop offset="50%" stop-color="#d4c07a">
        <animate attributeName="stop-color" values="#d4c07a;#f5e6a3;#b49c5a;#f5e6a3;#d4c07a" dur="3s" repeatCount="indefinite"/>
      </stop>
      <stop offset="100%" stop-color="#b49c5a">
        <animate attributeName="stop-color" values="#b49c5a;#d4c07a;#f5e6a3;#d4c07a;#b49c5a" dur="3s" repeatCount="indefinite"/>
      </stop>
    </linearGradient>
    
    <!-- Sweeping shimmer highlight -->
    <linearGradient id="shimmerSweep" x1="-100%" y1="0%" x2="0%" y2="0%">
      <stop offset="0%" stop-color="rgba(255,255,255,0)"/>
      <stop offset="50%" stop-color="rgba(255,255,255,0.4)"/>
      <stop offset="100%" stop-color="rgba(255,255,255,0)"/>
      <animate attributeName="x1" values="-100%;200%" dur="4s" repeatCount="indefinite"/>
      <animate attributeName="x2" values="0%;300%" dur="4s" repeatCount="indefinite"/>
    </linearGradient>
    
    <!-- Soft glow filter -->
    <filter id="softGlow" x="-50%" y="-50%" width="200%" height="200%">
      <feGaussianBlur stdDeviation="8" result="blur"/>
      <feMerge>
        <feMergeNode in="blur"/>
        <feMergeNode in="SourceGraphic"/>
      </feMerge>
    </filter>
    
    <!-- Outer glow for gold -->
    <filter id="goldGlow" x="-30%" y="-30%" width="160%" height="160%">
      <feGaussianBlur in="SourceAlpha" stdDeviation="6" result="blur"/>
      <feFlood flood-color="#d4c07a" flood-opacity="0.5"/>
      <feComposite in2="blur" operator="in"/>
      <feMerge>
        <feMergeNode/>
        <feMergeNode in="SourceGraphic"/>
      </feMerge>
    </filter>
    
    <!-- Clip path for shimmer -->
    <clipPath id="monogramClip">
      <path d="M 599.00 930.50 L 559.00 925.50 L 532.00 916.50 L 508.00 903.50 L 492.50 888.00 L 483.50 872.00 L 479.50 839.00 L 489.50 809.00 L 512.00 784.50 L 532.00 768.50 L 577.00 740.50 L 612.50 708.00 L 625.50 684.00 L 631.50 661.00 L 629.00 658.50 L 555.00 658.50 L 552.50 664.00 L 557.50 686.00 L 567.00 700.50 L 576.00 701.50 L 583.50 695.00 L 583.50 687.00 L 579.00 680.50 L 563.50 680.00 L 566.50 672.00 L 574.00 666.50 L 584.00 665.50 L 594.00 669.50 L 603.50 685.00 L 602.50 701.00 L 596.00 711.50 L 579.00 720.50 L 566.00 720.50 L 552.00 714.50 L 542.50 704.00 L 526.50 648.00 L 517.00 633.50 L 670.50 635.00 L 658.50 651.00 L 643.50 701.00 L 624.50 732.00 L 585.00 769.50 L 526.00 808.50 L 516.50 818.00 L 506.50 837.00 L 505.50 855.00 L 510.50 871.00 L 525.00 888.50 L 539.00 898.50 L 565.00 908.50 L 572.50 906.00 L 571.50 887.00 L 562.00 875.50 L 559.50 878.00 L 559.50 889.00 L 554.00 894.50 L 544.00 895.50 L 534.50 889.00 L 532.50 877.00 L 545.00 863.50 L 566.00 862.50 L 584.50 876.00 L 590.50 888.00 L 593.50 917.00 L 599.00 930.50 Z M 760.00 1116.50 L 753.50 1093.00 L 744.50 1078.00 L 733.00 1066.50 L 702.00 1049.50 L 658.00 1036.50 L 559.00 1020.50 L 521.00 1006.50 L 492.00 988.50 L 478.50 973.00 L 471.50 955.00 L 472.50 854.00 L 480.50 882.00 L 490.50 897.00 L 505.00 909.50 L 528.00 922.50 L 555.00 932.50 L 593.00 941.50 L 653.00 948.50 L 688.00 956.50 L 717.00 967.50 L 738.00 981.50 L 752.50 998.00 L 760.50 1019.00 L 762.50 1100.00 L 760.00 1116.50 Z M 714.00 1340.50 L 565.50 1339.00 L 576.50 1323.00 L 590.50 1275.00 L 613.50 1237.00 L 642.00 1209.50 L 707.00 1165.50 L 717.50 1155.00 L 726.50 1136.00 L 727.50 1120.00 L 721.50 1101.00 L 712.00 1088.50 L 691.00 1073.50 L 663.00 1064.50 L 660.50 1067.00 L 660.50 1080.00 L 665.50 1093.00 L 671.00 1097.50 L 673.50 1085.00 L 679.00 1079.50 L 694.00 1080.50 L 699.50 1087.00 L 700.50 1097.00 L 692.00 1108.50 L 679.00 1112.50 L 668.00 1111.50 L 649.50 1099.00 L 641.50 1083.00 L 638.50 1052.00 L 634.00 1042.50 L 687.00 1052.50 L 709.00 1060.50 L 728.00 1072.50 L 742.50 1089.00 L 750.50 1105.00 L 753.50 1138.00 L 742.50 1168.00 L 718.00 1193.50 L 656.00 1234.50 L 629.50 1258.00 L 612.50 1283.00 L 603.50 1312.00 L 606.00 1314.50 L 679.00 1314.50 L 681.50 1312.00 L 675.50 1285.00 L 666.00 1272.50 L 655.00 1272.50 L 650.50 1279.00 L 650.50 1286.00 L 655.00 1292.50 L 670.50 1293.00 L 670.50 1298.00 L 664.00 1306.50 L 649.00 1308.50 L 640.00 1304.50 L 634.50 1299.00 L 630.50 1287.00 L 633.50 1270.00 L 640.00 1260.50 L 654.00 1253.50 L 670.00 1253.50 L 682.00 1259.50 L 691.50 1269.00 L 706.50 1324.00 L 717.50 1339.00 L 714.00 1340.50 Z" transform="translate(40,40)"/>
    </clipPath>
  </defs>
  
  <g transform="translate(40,40)">
    <!-- Outer teal oval frame with fade-in -->
    <path d="M 1.00 998.50 a 615.50 778.50 0 1 0 1231.00 0 a 615.50 778.50 0 1 0 -1231.00 0 Z M 182.00 999.00 a 434.50 601.00 0 1 0 869.00 0 a 434.50 601.00 0 1 0 -869.00 0 Z" fill="#1d504e" fill-rule="evenodd">
      <animate attributeName="opacity" from="0" to="1" dur="1s" fill="freeze"/>
    </path>
    
    <!-- Gold ring with shimmer and glow -->
    <path d="M 182.00 999.00 a 434.50 601.00 0 1 0 869.00 0 a 434.50 601.00 0 1 0 -869.00 0 Z M 226.00 993.50 a 390.00 543.50 0 1 0 780.00 0 a 390.00 543.50 0 1 0 -780.00 0 Z" fill="url(#goldShimmer)" fill-rule="evenodd" filter="url(#goldGlow)">
      <animate attributeName="opacity" from="0" to="1" dur="1.2s" fill="freeze"/>
    </path>
    
    <!-- White center with subtle pulse -->
    <path d="M 226.00 993.50 a 390.00 543.50 0 1 0 780.00 0 a 390.00 543.50 0 1 0 -780.00 0 Z" fill="#ffffff">
      <animate attributeName="opacity" from="0" to="1" dur="1.4s" fill="freeze"/>
      <animate attributeName="fill-opacity" values="1;0.97;1" dur="4s" repeatCount="indefinite" begin="2s"/>
    </path>
    
    <!-- Hebrew monogram calligraphy with draw-in and shimmer -->
    <g filter="url(#softGlow)">
      <path d="M 599.00 930.50 L 559.00 925.50 L 532.00 916.50 L 508.00 903.50 L 492.50 888.00 L 483.50 872.00 L 479.50 839.00 L 489.50 809.00 L 512.00 784.50 L 532.00 768.50 L 577.00 740.50 L 612.50 708.00 L 625.50 684.00 L 631.50 661.00 L 629.00 658.50 L 555.00 658.50 L 552.50 664.00 L 557.50 686.00 L 567.00 700.50 L 576.00 701.50 L 583.50 695.00 L 583.50 687.00 L 579.00 680.50 L 563.50 680.00 L 566.50 672.00 L 574.00 666.50 L 584.00 665.50 L 594.00 669.50 L 603.50 685.00 L 602.50 701.00 L 596.00 711.50 L 579.00 720.50 L 566.00 720.50 L 552.00 714.50 L 542.50 704.00 L 526.50 648.00 L 517.00 633.50 L 670.50 635.00 L 658.50 651.00 L 643.50 701.00 L 624.50 732.00 L 585.00 769.50 L 526.00 808.50 L 516.50 818.00 L 506.50 837.00 L 505.50 855.00 L 510.50 871.00 L 525.00 888.50 L 539.00 898.50 L 565.00 908.50 L 572.50 906.00 L 571.50 887.00 L 562.00 875.50 L 559.50 878.00 L 559.50 889.00 L 554.00 894.50 L 544.00 895.50 L 534.50 889.00 L 532.50 877.00 L 545.00 863.50 L 566.00 862.50 L 584.50 876.00 L 590.50 888.00 L 593.50 917.00 L 599.00 930.50 Z M 760.00 1116.50 L 753.50 1093.00 L 744.50 1078.00 L 733.00 1066.50 L 702.00 1049.50 L 658.00 1036.50 L 559.00 1020.50 L 521.00 1006.50 L 492.00 988.50 L 478.50 973.00 L 471.50 955.00 L 472.50 854.00 L 480.50 882.00 L 490.50 897.00 L 505.00 909.50 L 528.00 922.50 L 555.00 932.50 L 593.00 941.50 L 653.00 948.50 L 688.00 956.50 L 717.00 967.50 L 738.00 981.50 L 752.50 998.00 L 760.50 1019.00 L 762.50 1100.00 L 760.00 1116.50 Z M 714.00 1340.50 L 565.50 1339.00 L 576.50 1323.00 L 590.50 1275.00 L 613.50 1237.00 L 642.00 1209.50 L 707.00 1165.50 L 717.50 1155.00 L 726.50 1136.00 L 727.50 1120.00 L 721.50 1101.00 L 712.00 1088.50 L 691.00 1073.50 L 663.00 1064.50 L 660.50 1067.00 L 660.50 1080.00 L 665.50 1093.00 L 671.00 1097.50 L 673.50 1085.00 L 679.00 1079.50 L 694.00 1080.50 L 699.50 1087.00 L 700.50 1097.00 L 692.00 1108.50 L 679.00 1112.50 L 668.00 1111.50 L 649.50 1099.00 L 641.50 1083.00 L 638.50 1052.00 L 634.00 1042.50 L 687.00 1052.50 L 709.00 1060.50 L 728.00 1072.50 L 742.50 1089.00 L 750.50 1105.00 L 753.50 1138.00 L 742.50 1168.00 L 718.00 1193.50 L 656.00 1234.50 L 629.50 1258.00 L 612.50 1283.00 L 603.50 1312.00 L 606.00 1314.50 L 679.00 1314.50 L 681.50 1312.00 L 675.50 1285.00 L 666.00 1272.50 L 655.00 1272.50 L 650.50 1279.00 L 650.50 1286.00 L 655.00 1292.50 L 670.50 1293.00 L 670.50 1298.00 L 664.00 1306.50 L 649.00 1308.50 L 640.00 1304.50 L 634.50 1299.00 L 630.50 1287.00 L 633.50 1270.00 L 640.00 1260.50 L 654.00 1253.50 L 670.00 1253.50 L 682.00 1259.50 L 691.50 1269.00 L 706.50 1324.00 L 717.50 1339.00 L 714.00 1340.50 Z" fill="url(#goldShimmer)" fill-rule="evenodd">
        <animate attributeName="opacity" from="0" to="1" dur="1.8s" fill="freeze"/>
      </path>
    </g>
    
    <!-- Shimmer sweep overlay on monogram -->
    <g clip-path="url(#monogramClip)" opacity="0.6">
      <rect x="0" y="600" width="1400" height="800" fill="url(#shimmerSweep)">
        <animate attributeName="opacity" from="0" to="0.6" dur="2s" fill="freeze"/>
      </rect>
    </g>
  </g>
  
  <!-- Floating sparkle particles -->
  <g opacity="0">
    <circle cx="400" cy="700" r="3" fill="#f5e6a3">
      <animate attributeName="opacity" values="0;1;0" dur="2s" repeatCount="indefinite" begin="2s"/>
      <animate attributeName="r" values="2;4;2" dur="2s" repeatCount="indefinite" begin="2s"/>
    </circle>
    <circle cx="900" cy="850" r="2" fill="#f5e6a3">
      <animate attributeName="opacity" values="0;1;0" dur="2.5s" repeatCount="indefinite" begin="2.3s"/>
      <animate attributeName="r" values="1;3;1" dur="2.5s" repeatCount="indefinite" begin="2.3s"/>
    </circle>
    <circle cx="650" cy="1200" r="2.5" fill="#f5e6a3">
      <animate attributeName="opacity" values="0;1;0" dur="3s" repeatCount="indefinite" begin="2.6s"/>
      <animate attributeName="r" values="1.5;3.5;1.5" dur="3s" repeatCount="indefinite" begin="2.6s"/>
    </circle>
    <circle cx="350" cy="1100" r="2" fill="#d4c07a">
      <animate attributeName="opacity" values="0;0.8;0" dur="2.2s" repeatCount="indefinite" begin="3s"/>
    </circle>
    <circle cx="950" cy="1050" r="2" fill="#d4c07a">
      <animate attributeName="opacity" values="0;0.8;0" dur="2.8s" repeatCount="indefinite" begin="3.2s"/>
    </circle>
    <animate attributeName="opacity" from="0" to="1" dur="0.5s" begin="2s" fill="freeze"/>
  </g>
</svg>
